<svg xmlns="http://www.w3.org/2000/svg" viewBox="0 0 32 32" width="32" height="32">
  <!-- Fundo circular -->
  <circle cx="16" cy="16" r="14" fill="#1e3a8a"/>
  
  <!-- Balão de chat -->
  <path d="M8 10 Q8 7 11 7 L21 7 Q24 7 24 10 L24 18 Q24 21 21 21 L14 21 L11 25 L11 21 Q8 21 8 18 Z" 
        fill="#f8fafc"/>
  
  <!-- Pontos do chat -->
  <circle cx="13" cy="14" r="1" fill="#1e3a8a"/>
  <circle cx="16" cy="14" r="1" fill="#1e3a8a"/>
  <circle cx="19" cy="14" r="1" fill="#1e3a8a"/>
  
  <!-- Cadeado mini -->
  <g transform="translate(20, 8)">
    <rect x="0" y="3" width="4" height="3" rx="0.5" fill="#1e3a8a"/>
    <path d="M1 3 Q1 1.5 2 1.5 Q3 1.5 3 3" stroke="#1e3a8a" stroke-width="0.5" fill="none"/>
    <circle cx="2" cy="4.5" r="0.5" fill="#f8fafc"/>
  </g>
</svg>