<svg xmlns="http://www.w3.org/2000/svg" viewBox="0 0 100 100" width="100" height="100">
  <!-- Fundo circular -->
  <circle cx="50" cy="50" r="45" fill="#1e3a8a" stroke="#f8fafc" stroke-width="3"/>
  
  <!-- Balão de chat principal -->
  <path d="M25 30 Q25 20 35 20 L65 20 Q75 20 75 30 L75 50 Q75 60 65 60 L45 60 L35 70 L35 60 Q25 60 25 50 Z" 
        fill="#f8fafc" stroke="none"/>
  
  <!-- Pontos do chat -->
  <circle cx="40" cy="40" r="2.5" fill="#1e3a8a"/>
  <circle cx="50" cy="40" r="2.5" fill="#1e3a8a"/>
  <circle cx="60" cy="40" r="2.5" fill="#1e3a8a"/>
  
  <!-- Cadeado (segurança) -->
  <g transform="translate(62, 25)">
    <!-- Corpo do cadeado -->
    <rect x="0" y="8" width="12" height="10" rx="2" fill="#1e3a8a"/>
    <!-- Arco do cadeado -->
    <path d="M3 8 Q3 3 6 3 Q9 3 9 8" stroke="#1e3a8a" stroke-width="2" fill="none"/>
    <!-- Buraco da chave -->
    <circle cx="6" cy="13" r="1.5" fill="#f8fafc"/>
  </g>
</svg>